# File created by Blade
# Date/Time:  Fri Jan 16 19:00:24 2015
# Frame Rate: 120.000 fps
#------------------------------------------------------
:FULLY-SPECIFIED
:DEGREES
780
root 21.584534 35.602969 -20.337418 -177.358343 0.205331 -182.240764
Spine 6.290421 1.453350 -0.514130
Head 17.851960 -2.022029 3.419770
LeftShoulder -7.772787 -20.800074 -1.628928
LeftArm -7.184029 19.112403 -70.772142
LeftForeArm -0.067074 -0.000000 9.509081
LeftHand -1.985989 -0.000000 1.659043
LeftHandThumb1 -26.253704 0.000000 33.147579
RightShoulder -8.879694 -16.538822 12.609535
RightArm 9.188244 2.521577 68.733109
RightForeArm -27.570415 -0.000000 28.522545
RightHand -11.736683 -0.000000 -1.150412
RightHandThumb1 -24.326973 -0.000000 -32.862282
LeftUpLeg -2.206747 5.518335 -5.926360
LeftLeg -1.367845 -0.000000 0.000000
LeftFoot -17.947141 30.082630 -5.805630
LeftToeBase 16.848753 -0.000000 -0.000000
RightUpLeg -45.735277 18.093409 -7.203369
RightLeg 69.059414 -0.000000 -0.000000
RightFoot 10.867951 -45.840533 -4.594994
RightToeBase 17.677072 -0.000000 -0.000000
781
root 21.649852 35.612348 -20.400440 -177.354362 -0.249562 -182.182416
Spine 6.000200 1.530837 -0.237295
Head 18.440890 -2.324321 3.206732
LeftShoulder -7.840591 -20.666221 -1.832799
LeftArm -7.640351 19.092229 -70.925170
LeftForeArm -0.157138 -0.000000 9.616830
LeftHand -2.045776 -0.000000 1.711823
LeftHandThumb1 -26.253704 0.000000 33.147579
RightShoulder -9.029064 -16.678401 12.565369
RightArm 9.263620 2.452407 68.501844
RightForeArm -27.385457 -0.000000 28.629213
RightHand -11.679932 -0.000000 -1.142649
RightHandThumb1 -24.326973 -0.000000 -32.862282
LeftUpLeg -2.101640 5.070676 -5.729039
LeftLeg -1.393207 -0.000000 0.000000
LeftFoot -17.969423 30.065578 -6.002067
LeftToeBase 16.965468 -0.000000 -0.000000
RightUpLeg -43.524389 17.858323 -7.489880
RightLeg 66.207181 -0.000000 -0.000000
RightFoot 9.413189 -45.944551 -3.990773
RightToeBase 17.915631 -0.000000 -0.000000
782
root 21.725887 35.617547 -20.450171 -177.254428 -0.574527 -182.160361
Spine 5.644473 1.767183 -0.067457
Head 18.941616 -2.642743 3.083743
LeftShoulder -7.956975 -20.487118 -1.951099
LeftArm -7.989323 19.172599 -71.087768
LeftForeArm -0.239803 -0.000000 9.676364
LeftHand -2.031957 -0.000000 1.763938
LeftHandThumb1 -26.253704 0.000000 33.147579
RightShoulder -9.222761 -16.838497 12.549301
RightArm 9.435650 2.365026 68.351721
RightForeArm -27.359745 -0.000000 28.661100
RightHand -11.629284 0.000000 -1.364877
RightHandThumb1 -24.326973 -0.000000 -32.862282
LeftUpLeg -2.207733 4.937061 -5.573117
LeftLeg -1.237673 -0.000000 0.000000
LeftFoot -18.094940 29.848971 -6.174595
LeftToeBase 17.225929 -0.000000 -0.000000
RightUpLeg -41.548224 17.733646 -7.813737
RightLeg 63.450252 -0.000000 -0.000000
RightFoot 7.830690 -45.874471 -3.084780
RightToeBase 17.892435 -0.000000 -0.000000
783
root 21.808461 35.620986 -20.502513 -177.228638 -0.881496 -182.130312
Spine 5.400629 2.003760 0.089382
Head 19.378491 -2.929361 2.980765
LeftShoulder -8.035748 -20.353596 -2.040277
LeftArm -8.357321 18.759047 -71.222184
LeftForeArm 0.078426 -0.000000 9.694485
LeftHand -2.134823 -0.000000 1.571202
LeftHandThumb1 -26.253704 0.000000 33.147579
RightShoulder -9.349991 -16.945069 12.511815
RightArm 9.570829 2.189144 68.190082
RightForeArm -27.189401 0.000000 28.762203
RightHand -11.818063 -0.000000 -1.595331
RightHandThumb1 -24.326973 -0.000000 -32.862282
LeftUpLeg -2.173037 4.511802 -5.380670
LeftLeg -1.201842 -0.000000 0.000000
LeftFoot -18.187313 29.947542 -6.399109
LeftToeBase 17.168600 -0.000000 -0.000000
RightUpLeg -39.515419 17.598269 -8.004309
RightLeg 60.687818 -0.000000 -0.000000
RightFoot 6.007069 -45.967454 -1.590368
RightToeBase 16.990185 -0.000000 -0.000000
784
root 21.893487 35.625775 -20.568148 -177.246120 -1.166977 -182.084360
Spine 5.167658 2.293050 0.277049
Head 19.858693 -3.224068 2.837568
LeftShoulder -8.044585 -20.226861 -2.174426
LeftArm -8.830125 18.408901 -71.367866
LeftForeArm 0.258708 -0.000000 9.752125
LeftHand -2.123979 0.000000 1.593527
LeftHandThumb1 -26.253704 0.000000 33.147579
RightShoulder -9.521999 -17.089730 12.481167
RightArm 9.760155 1.979380 68.042253
RightForeArm -27.220516 -0.000000 28.650225
RightHand -11.634432 0.000000 -2.050222
RightHandThumb1 -24.326973 -0.000000 -32.862282
LeftUpLeg -2.160704 4.510427 -5.186649
LeftLeg -1.016609 -0.000000 0.000000
LeftFoot -18.322591 29.704618 -6.575161
LeftToeBase 17.164340 -0.000000 -0.000000
RightUpLeg -37.425885 17.258780 -8.047204
RightLeg 57.905031 -0.000000 -0.000000
RightFoot 4.312977 -45.885734 -0.425658
RightToeBase 16.595974 -0.000000 -0.000000
785
root 21.979630 35.628119 -20.625741 -177.233921 -1.391150 -182.087232
Spine 4.946156 2.566943 0.373583
Head 20.244429 -3.404611 2.775814
LeftShoulder -8.111161 -20.050491 -2.231769
LeftArm -9.200804 17.679627 -71.480533
LeftForeArm 0.751810 -0.000000 9.721709
LeftHand -2.092399 -0.000000 1.443989
LeftHandThumb1 -26.253704 0.000000 33.147579
RightShoulder -9.623269 -17.231663 12.423945
RightArm 9.990551 1.730803 67.919516
RightForeArm -27.112317 -0.000000 28.573011
RightHand -11.548726 -0.000000 -2.528480
RightHandThumb1 -24.326973 -0.000000 -32.862282
LeftUpLeg -2.144253 4.322369 -5.026643
LeftLeg -0.912915 -0.000000 0.000000
LeftFoot -18.489482 29.665517 -6.803424
LeftToeBase 17.491293 -0.000000 -0.000000
RightUpLeg -35.431263 16.843076 -8.097260
RightLeg 55.175274 -0.000000 -0.000000
RightFoot 2.632661 -45.479403 0.900565
RightToeBase 16.543233 -0.000000 -0.000000
786
root 22.071404 35.630472 -20.686525 -177.269541 -1.536151 -182.089255
Spine 4.792188 2.976324 0.468855
Head 20.617078 -3.718311 2.679594
LeftShoulder -8.099495 -19.872269 -2.311100
LeftArm -9.617219 17.328561 -71.632015
LeftForeArm 0.868460 -0.000000 9.748026
LeftHand -2.000025 0.000000 1.436882
LeftHandThumb1 -26.253704 0.000000 33.147579
RightShoulder -9.770497 -17.237345 12.358295
RightArm 10.142656 1.417599 67.812516
RightForeArm -27.160368 0.000000 28.476034
RightHand -11.753736 -0.000000 -2.387163
RightHandThumb1 -24.326973 -0.000000 -32.862282
LeftUpLeg -2.059978 4.078190 -4.856150
LeftLeg -0.834222 -0.000000 0.000000
LeftFoot -18.624841 29.788460 -7.080834
LeftToeBase 17.489238 -0.000000 -0.000000
RightUpLeg -33.422752 16.385025 -8.056723
RightLeg 52.446131 -0.000000 -0.000000
RightFoot 1.163832 -44.852818 2.224093
RightToeBase 16.280413 -0.000000 -0.000000
787
root 22.168294 35.630988 -20.749050 -177.297342 -1.604896 -182.090187
Spine 4.628284 3.386331 0.533176
Head 20.966760 -3.867553 2.633707
LeftShoulder -8.164136 -19.676794 -2.342877
LeftArm -10.024802 17.089773 -71.797839
LeftForeArm 0.811891 -0.000000 9.756254
LeftHand -2.019574 -0.000000 1.540613
LeftHandThumb1 -26.253704 0.000000 33.147579
RightShoulder -9.818898 -17.267674 12.254430
RightArm 10.260059 1.291331 67.785948
RightForeArm -27.069836 -0.000000 28.401838
RightHand -11.618524 0.000000 -2.367472
RightHandThumb1 -24.326973 -0.000000 -32.862282
LeftUpLeg -1.969561 3.938537 -4.696092
LeftLeg -0.780801 -0.000000 0.000000
LeftFoot -18.805057 29.905729 -7.340041
LeftToeBase 17.686973 -0.000000 -0.000000
RightUpLeg -31.472307 15.855861 -7.955052
RightLeg 49.751311 -0.000000 -0.000000
RightFoot -0.535734 -43.857978 4.005857
RightToeBase 15.801607 -0.000000 -0.000000
788
root 22.271480 35.631547 -20.814505 -177.378299 -1.619897 -182.072508
Spine 4.560910 3.842784 0.623274
Head 21.261622 -4.020811 2.555710
LeftShoulder -8.220370 -19.585013 -2.366762
LeftArm -10.552668 17.113483 -72.014276
LeftForeArm 0.562615 -0.000000 9.817779
LeftHand -2.107314 -0.000000 1.536322
LeftHandThumb1 -26.253704 0.000000 33.147579
RightShoulder -9.917506 -17.316231 12.176764
RightArm 10.502126 1.169020 67.759145
RightForeArm -27.124965 0.000000 28.274547
RightHand -11.714023 -0.000000 -2.435019
RightHandThumb1 -24.326973 -0.000000 -32.862282
LeftUpLeg -1.855759 3.834044 -4.500518
LeftLeg -0.648984 -0.000000 0.000000
LeftFoot -19.002413 29.992164 -7.592132
LeftToeBase 17.832515 -0.000000 -0.000000
RightUpLeg -29.509184 15.207964 -7.745072
RightLeg 47.096521 -0.000000 -0.000000
RightFoot -2.174318 -42.548520 5.698938
RightToeBase 15.735958 -0.000000 -0.000000
789
root 22.380452 35.630235 -20.872077 -177.390334 -1.543237 -182.099426
Spine 4.420666 4.394559 0.613862
Head 21.555727 -4.134081 2.564404
LeftShoulder -8.284035 -19.401902 -2.350277
LeftArm -10.918318 16.880790 -72.184850
LeftForeArm 0.494926 -0.000000 9.741419
LeftHand -1.976746 -0.000000 1.466832
LeftHandThumb1 -26.253704 0.000000 33.147579
RightShoulder -9.977975 -17.265239 12.089407
RightArm 10.572679 1.029972 67.765067
RightForeArm -26.846023 -0.000000 28.275934
RightHand -11.690711 -0.000000 -2.733136
RightHandThumb1 -24.326973 -0.000000 -32.862282
LeftUpLeg -1.744888 3.610606 -4.348002
LeftLeg -0.661669 -0.000000 0.000000
LeftFoot -19.144744 30.269917 -7.885424
LeftToeBase 17.965709 -0.000000 -0.000000
RightUpLeg -27.738377 14.543187 -7.581272
RightLeg 44.644246 -0.000000 -0.000000
RightFoot -4.726394 -41.215528 8.414119
RightToeBase 15.103249 -0.000000 -0.000000
790
root 22.501941 35.630253 -20.942433 -177.487174 -1.503776 -182.030101
Spine 4.362481 4.891808 0.710669
Head 21.851400 -4.306260 2.547518
LeftShoulder -8.367855 -19.253060 -2.349688
LeftArm -11.375082 16.611764 -72.324506
LeftForeArm 0.500862 -0.000000 9.798222
LeftHand -2.014486 -0.000000 1.398961
LeftHandThumb1 -26.253704 0.000000 33.147579
RightShoulder -10.086239 -17.251089 12.030166
RightArm 10.753964 0.812966 67.751152
RightForeArm -26.849363 0.000000 28.118716
RightHand -11.689581 -0.000000 -2.528183
RightHandThumb1 -24.326973 -0.000000 -32.862282
LeftUpLeg -1.567366 3.325100 -4.074859
LeftLeg -0.599023 -0.000000 0.000000
LeftFoot -19.365513 30.606654 -8.113396
LeftToeBase 18.153771 -0.000000 -0.000000
RightUpLeg -25.848052 13.697909 -7.212975
RightLeg 42.174172 -0.000000 -0.000000
RightFoot -7.462506 -40.108774 11.566180
RightToeBase 11.883886 -0.000000 -0.000000
791
root 22.627702 35.629262 -21.005448 -177.523580 -1.482648 -181.965005
Spine 4.264133 5.346486 0.811545
Head 22.119080 -4.446069 2.488746
LeftShoulder -8.444217 -19.160538 -2.359439
LeftArm -11.840526 16.479840 -72.493439
LeftForeArm 0.431496 -0.000000 9.718524
LeftHand -2.058043 -0.000000 1.521739
LeftHandThumb1 -26.253704 0.000000 33.147579
RightShoulder -10.182523 -17.245962 11.952177
RightArm 10.943698 0.772096 67.815306
RightForeArm -26.869796 -0.000000 28.011969
RightHand -11.572907 -0.000000 -2.779066
RightHandThumb1 -24.326973 -0.000000 -32.862282
LeftUpLeg -1.543254 3.271682 -3.809999
LeftLeg -0.406647 -0.000000 0.000000
LeftFoot -19.612183 30.662473 -8.298959
LeftToeBase 18.425508 -0.000000 -0.000000
RightUpLeg -24.132099 12.684995 -6.851727
RightLeg 39.814450 -0.000000 -0.000000
RightFoot -12.211348 -39.193196 16.000986
RightToeBase 13.141674 -0.000000 -0.000000
792
root 22.743764 35.624224 -21.049409 -177.373330 -1.283162 -182.005704
Spine 3.976137 5.964039 0.766889
Head 22.365415 -4.499973 2.446473
LeftShoulder -8.561291 -19.034411 -2.335548
LeftArm -12.245131 16.259915 -72.647123
LeftForeArm 0.389172 -0.000000 9.536325
LeftHand -1.838014 0.000000 1.493143
LeftHandThumb1 -26.253704 0.000000 33.147579
RightShoulder -10.273795 -17.226045 11.844289
RightArm 11.088834 0.686022 67.904798
RightForeArm -26.629034 -0.000000 27.952957
RightHand -11.325960 -0.000000 -2.974965
RightHandThumb1 -24.326973 -0.000000 -32.862282
LeftUpLeg -1.743276 3.119589 -3.682187
LeftLeg -0.143201 -0.000000 0.000000
LeftFoot -19.900751 30.979598 -8.588555
LeftToeBase 18.494011 -0.000000 -0.000000
RightUpLeg -22.773841 11.676390 -6.716271
RightLeg 37.784795 -0.000000 -0.000000
RightFoot -15.861887 -37.667811 18.233619
RightToeBase 15.011773 -0.000000 -0.000000
